# xmcd
#
# Track frame offsets:
# 150
# 14743
# 29851
# 42747
# 58274
# 73129
# 88129
# 98119
# 114812
# 130892
# 144440
# 159801
#
# Disc length: 2331 seconds
#
# Revision: 1
# Processed by: cddbd v1.4PL0 Copyright (c) Steve Scherf et al.
# Submitted via: CedeCatalogueitor 2.5 http://usuarios.lycos.es/kakasboy
#
DISCID=ae09190c
DTITLE=Coyote Dax - Necesito Country
DYEAR=2002
DGENRE=
TTITLE0=Te Deseo
TTITLE1=Dijo Si
TTITLE2=Necesito Country
TTITLE3=Ese Soy Yo, Extrañandote
TTITLE4=No Lo Hare Mas
TTITLE5=Pequeña Amiga
TTITLE6=Corazon Soñador
TTITLE7=Blues de la Nacional II
TTITLE8=Chu-Chu Train
TTITLE9=Jukebox Junkie
TTITLE10=Yo Quiero Vivir
TTITLE11=Te Solte La Rienda
EXTD=
EXTT0=
EXTT1=
EXTT2=
EXTT3=
EXTT4=
EXTT5=
EXTT6=
EXTT7=
EXTT8=
EXTT9=
EXTT10=
EXTT11=
PLAYORDER=
